<svg width="1784" height="1642" viewBox="0 0 1784 1642" fill="none" xmlns="http://www.w3.org/2000/svg">
<path d="M471.017 902.944L471.019 904.662C471.386 1020.59 508.888 1127.77 572.251 1214.93L553.273 1228.72C486.78 1137.25 447.561 1024.68 447.561 902.944C447.561 902.87 447.561 902.796 447.561 902.723H471.017C471.017 902.796 471.017 902.87 471.017 902.944ZM736.606 902.944L736.612 904.661C736.976 962.238 755.663 1015.47 787.134 1058.81L692.244 1127.75C646.377 1064.63 619.325 986.944 619.325 902.944C619.325 902.87 619.326 902.796 619.326 902.723H736.607C736.607 902.796 736.606 902.87 736.606 902.944ZM929.18 902.944L929.186 903.887C929.383 919.455 934.453 933.849 942.94 945.614L871.312 997.654C852.213 971.306 840.875 938.966 840.654 903.988L840.65 902.944L840.651 902.723H929.182C929.181 902.796 929.18 902.87 929.18 902.944Z" fill="#4950A0"/>
<path d="M242.811 1144.84C268.894 1226.8 307.875 1303 357.37 1371.06L276.447 1429.85C220.734 1353.25 176.855 1267.48 147.494 1175.24L242.811 1144.84Z" fill="#4950A0"/>
<path d="M625.971 1175.91C683.019 1254.4 764.034 1314.35 858.266 1345.01L827.35 1440.16C712.836 1402.92 614.382 1330.08 545.047 1234.7L625.971 1175.91ZM751.319 1084.84C789.337 1137.18 843.337 1177.17 906.154 1197.63L898.904 1219.94C831.331 1197.94 773.24 1154.93 732.341 1098.62L751.319 1084.84ZM942.939 945.617C951.864 957.99 964.569 967.454 979.362 972.32L946.792 1072.56C910.634 1060.75 879.557 1037.71 857.689 1007.55L942.939 945.617Z" fill="#2FA3B0"/>
<path d="M780.963 1582.93C849.93 1605.36 923.497 1617.58 999.885 1617.82L1002.2 1617.83C1079.27 1617.83 1153.48 1605.63 1223.03 1583.06L1230.28 1605.38C1158.45 1628.69 1081.8 1641.28 1002.2 1641.28C922.452 1641.28 845.658 1628.64 773.713 1605.25L780.963 1582.93ZM858.268 1345.01C903.134 1359.61 950.996 1367.57 1000.69 1367.73L1002.2 1367.73C1052.29 1367.73 1100.52 1359.81 1145.73 1345.14L1171.31 1423.88C1118.05 1441.15 1061.21 1450.49 1002.2 1450.49C943.033 1450.49 886.061 1441.11 832.687 1423.75L858.268 1345.01ZM933.521 1113.41C954.711 1120.32 977.305 1124.12 1000.77 1124.27L1002.2 1124.27C1026.02 1124.27 1048.97 1120.51 1070.47 1113.54L1118.35 1260.9C1081.77 1272.76 1042.73 1279.17 1002.2 1279.17C961.514 1279.17 922.339 1272.71 885.642 1260.77L933.521 1113.41ZM979.364 972.32C986.548 974.683 994.223 975.963 1002.2 975.963C1010.02 975.963 1017.56 974.731 1024.63 972.451L1052 1056.67C1036.31 1061.75 1019.57 1064.49 1002.2 1064.49C984.673 1064.49 967.8 1061.7 951.999 1056.54L979.364 972.32Z" fill="#4950A0"/>
<path d="M1580.6 1323.11C1492.76 1443.83 1368.05 1535.98 1223.02 1583.04L1186.77 1471.47C1308.02 1432.13 1412.28 1355.09 1485.71 1254.17L1580.6 1323.11ZM1427.32 1211.75C1362.75 1300.49 1271.08 1368.23 1164.47 1402.82L1145.72 1345.14C1240.04 1314.55 1321.15 1254.62 1378.27 1176.11L1427.32 1211.75ZM1306.64 1124.07C1260.39 1187.63 1194.72 1236.15 1118.36 1260.91L1108.24 1229.76C1177.96 1207.15 1237.91 1162.85 1280.14 1104.82L1306.64 1124.07ZM1244.31 1078.79C1207.53 1129.35 1155.29 1167.94 1094.55 1187.63L1036.27 1008.26C1058.78 1000.98 1078.14 986.688 1091.76 967.953L1244.31 1078.79Z" fill="#F6C345"/>
<path d="M1721.93 902.944C1721.93 1061.04 1670.95 1207.23 1584.54 1325.98L1503.61 1267.19C1577.65 1165.44 1621.47 1040.3 1621.9 904.948L1621.9 902.944C1621.9 902.87 1621.9 902.796 1621.9 902.723H1721.92C1721.92 902.796 1721.93 902.87 1721.93 902.944ZM1490.43 902.944C1490.43 1010.19 1455.86 1109.35 1397.24 1189.9L1378.27 1176.12C1433.79 1099.81 1466.65 1005.96 1466.97 904.447L1466.98 902.944C1466.98 902.87 1466.98 902.796 1466.98 902.723H1490.43C1490.43 902.796 1490.43 902.87 1490.43 902.944ZM1412.07 902.944C1412.07 992.971 1383.04 1076.22 1333.84 1143.84L1252.92 1085.04C1289.74 1034.43 1311.62 972.232 1312.04 904.948L1312.05 902.944C1312.05 902.87 1312.05 902.796 1312.05 902.723H1412.07C1412.07 902.796 1412.07 902.87 1412.07 902.944ZM1257.14 902.944C1257.14 958.935 1239.09 1010.71 1208.5 1052.77L1091.76 967.954C1104.9 949.881 1112.7 927.678 1112.86 903.659L1112.86 902.944C1112.86 902.87 1112.86 902.796 1112.86 902.723H1257.14C1257.14 902.796 1257.14 902.87 1257.14 902.944Z" fill="#2FA3B0"/>
<path d="M1038.86 875.928C1044.33 883.45 1047.56 892.71 1047.56 902.724H1024.1C1024.1 897.863 1022.53 893.369 1019.88 889.717L1038.86 875.928ZM1128.4 810.873C1147.17 836.653 1158.25 868.395 1158.25 902.724H1134.79C1134.79 873.548 1125.37 846.571 1109.42 824.661L1128.4 810.873ZM1235.84 732.809C1270.57 780.499 1291.06 839.219 1291.07 902.724H1267.61C1267.6 844.372 1248.77 790.417 1216.86 746.598L1235.84 732.809ZM1512.68 531.676C1588.51 635.818 1633.25 764.046 1633.27 902.724H1533.25C1533.23 786.019 1495.57 678.109 1431.76 590.47L1512.68 531.676Z" fill="#6CB130"/>
<path d="M1671 416.645C1720.07 486.743 1758.39 564.91 1783.59 648.759L1761.27 656.011C1736.84 574.529 1699.65 498.563 1652.02 430.435L1671 416.645Z" fill="#6CB130"/>
<path d="M1016.06 859.356C1025.31 862.357 1033.25 868.231 1038.85 875.925L1019.87 889.714C1017.16 885.98 1013.3 883.127 1008.81 881.67L1016.06 859.356ZM1043.42 775.144C1070.62 783.969 1094.01 801.248 1110.49 823.88L1091.51 837.668C1077.91 818.995 1058.61 804.739 1036.17 797.459L1043.42 775.144ZM1101.29 597.046C1166.45 618.192 1222.49 659.594 1261.97 713.821L1181.05 772.616C1153.85 735.27 1115.26 706.758 1070.38 692.197L1101.29 597.046ZM1111.83 564.62C1183.91 588.006 1245.89 633.797 1289.56 693.775L1270.59 707.562C1229.79 651.543 1171.9 608.778 1104.58 586.936L1111.83 564.62ZM1166.14 397.469C1273.85 432.418 1366.47 500.848 1431.74 590.479L1360.12 642.509C1305.73 567.817 1228.54 510.794 1138.78 481.672L1166.14 397.469ZM1214.43 248.834C1353.83 294.061 1473.71 382.619 1558.18 498.616L1539.2 512.404C1457.61 400.366 1341.83 314.831 1207.18 271.148L1214.43 248.834Z" fill="#E77E37"/>
<path d="M1001.97 857.136C1006.89 857.136 1011.63 857.914 1016.06 859.355L1008.81 881.669C1006.66 880.97 1004.36 880.592 1001.97 880.592C999.588 880.592 997.288 880.97 995.134 881.669L987.884 859.355C992.322 857.914 997.057 857.136 1001.97 857.136ZM1003.54 666.836C1028.43 666.994 1052.4 671.005 1074.89 678.302L1042.06 779.347C1029.45 775.258 1015.99 773.048 1002.02 773.048C988.015 773.048 974.53 775.267 961.896 779.372L929.065 678.327C952.038 670.864 976.557 666.832 1002.02 666.832L1003.54 666.836ZM1003.49 460.154C1050.69 460.304 1096.15 467.842 1138.78 481.672L1100.61 599.137C1069.57 589.069 1036.45 583.629 1002.06 583.629C967.607 583.629 934.432 589.086 903.35 599.184L865.183 481.719C908.285 467.719 954.287 460.152 1002.06 460.152L1003.49 460.154ZM1002.1 138.848C1084.46 138.848 1163.78 151.881 1238.1 175.997L1207.19 271.147C1143.24 250.402 1075.05 239.096 1004.24 238.872L1002.1 238.868C930.443 238.868 861.44 250.218 796.787 271.219L765.871 176.068C840.259 151.906 919.653 138.848 1002.1 138.848Z" fill="#F6C345"/>
<path d="M995.136 881.672C990.649 883.129 986.792 885.982 984.074 889.717L965.095 875.928C970.695 868.234 978.643 862.359 987.886 859.358L995.136 881.672ZM974.608 818.491C956.645 824.307 941.199 835.717 930.326 850.666L897.025 826.472C912.954 804.576 935.576 787.862 961.885 779.336L974.608 818.491ZM947.239 734.259C911.313 745.89 880.422 768.71 858.675 798.609L839.697 784.821C864.325 750.963 899.306 725.121 939.988 711.945L947.239 734.259ZM903.722 600.329C839.235 621.208 783.786 662.169 744.75 715.837L725.772 702.049C767.689 644.422 827.228 600.438 896.472 578.015L903.722 600.329ZM872.283 503.57C787.195 531.182 714.03 585.253 662.492 656.074L581.569 597.28C645.392 509.577 735.998 442.617 841.367 408.42L872.283 503.57ZM790.759 252.666C652.199 297.655 533.052 385.714 449.115 501.046L434.791 490.64C520.903 372.32 643.137 281.979 785.288 235.825L790.759 252.666ZM739.58 95.1509C567.428 151.015 419.398 260.411 315.127 403.698L234.203 344.904C350.76 184.735 516.23 62.4498 708.664 0L739.58 95.1509Z" fill="#4950A0"/>
<path d="M239.424 348.7C126.18 504.192 59.3518 695.655 59.3041 902.725H0C0.0475805 682.627 71.077 479.117 191.442 313.84L239.424 348.7ZM452.475 503.491C370.853 615.534 322.68 753.505 322.632 902.725H200.483C200.531 726.67 257.358 563.887 353.648 431.689L452.475 503.491ZM541.277 568.009C472.835 661.943 432.437 777.617 432.389 902.725H408.933C408.981 772.464 451.041 652.025 522.299 554.221L541.277 568.009ZM659.869 654.172C609.015 723.923 578.975 809.818 578.88 902.725H437.258C437.353 778.705 477.426 664.041 545.287 570.923L659.869 654.172ZM707.78 688.981C664.051 748.958 638.231 822.828 638.183 902.725H585.075C585.123 811.16 614.705 726.503 664.811 657.762L707.78 688.981ZM753.971 722.54C717.097 773.098 695.323 835.37 695.275 902.725H686.424C686.471 833.425 708.873 769.355 746.809 717.337L753.971 722.54ZM859.96 799.546C838.817 828.489 826.323 864.149 826.275 902.725H726.255C726.302 842.176 745.883 786.197 779.036 740.751L859.96 799.546ZM898.703 827.694C883.297 848.739 874.168 874.668 874.073 902.725H856.37C856.465 870.779 866.848 841.254 884.38 817.288L898.703 827.694ZM930.859 851.057C920.239 865.541 913.951 883.4 913.904 902.725H890.448C890.495 878.247 898.444 855.623 911.88 837.268L930.859 851.057ZM956.64 869.788C949.847 879.015 945.817 890.4 945.769 902.725H936.918C936.965 888.456 941.622 875.272 949.478 864.585L956.64 869.788ZM984.072 889.718C981.414 893.37 979.846 897.864 979.846 902.725H956.389C956.389 892.711 959.619 883.451 965.093 875.929L984.072 889.718Z" fill="#6CB130"/>
</svg>
