<svg width="1784" height="1080" viewBox="0 0 1784 1080" fill="none" xmlns="http://www.w3.org/2000/svg">
<path d="M471.423 539.944L471.426 541.662C471.793 657.585 509.294 764.766 572.657 851.935L553.68 865.723C487.187 774.254 447.967 661.679 447.967 539.944C447.967 539.87 447.967 539.796 447.967 539.723H471.423C471.423 539.796 471.423 539.87 471.423 539.944ZM737.012 539.944L737.018 541.661C737.383 599.238 756.069 652.467 787.54 695.814L692.65 764.755C646.783 701.627 619.732 623.944 619.732 539.944C619.732 539.87 619.732 539.796 619.732 539.723H737.013C737.013 539.796 737.012 539.87 737.012 539.944ZM929.586 539.944L929.592 540.887C929.789 556.455 934.859 570.849 943.346 582.614L871.719 634.654C852.62 608.306 841.281 575.966 841.06 540.988L841.056 539.944L841.057 539.723H929.588C929.588 539.796 929.586 539.87 929.586 539.944Z" fill="white" fill-opacity="0.1"/>
<path d="M243.218 781.844C269.3 863.796 308.281 939.996 357.776 1008.06L276.853 1066.85C221.141 990.247 177.261 904.483 147.9 812.243L243.218 781.844Z" fill="white" fill-opacity="0.1"/>
<path d="M626.377 812.908C683.425 891.402 764.44 951.353 858.672 982.013L827.756 1077.16C713.242 1039.92 614.788 967.078 545.453 871.702L626.377 812.908ZM751.725 721.837C789.743 774.183 843.744 814.168 906.561 834.628L899.31 856.943C831.737 834.939 773.647 791.93 732.748 735.625L751.725 721.837ZM943.345 582.617C952.271 594.99 964.976 604.454 979.768 609.32L947.198 709.558C911.04 697.755 879.963 674.711 858.095 644.555L943.345 582.617Z" fill="white" fill-opacity="0.1"/>
<path d="M781.369 1219.93C850.336 1242.36 923.903 1254.58 1000.29 1254.82L1002.6 1254.83C1079.67 1254.83 1153.89 1242.63 1223.44 1220.06L1230.69 1242.38C1158.86 1265.69 1082.2 1278.28 1002.6 1278.28C922.858 1278.28 846.065 1265.64 774.119 1242.25L781.369 1219.93ZM858.674 982.014C903.54 996.611 951.402 1004.57 1001.1 1004.73L1002.6 1004.73C1052.69 1004.73 1100.93 996.806 1146.13 982.144L1171.71 1060.88C1118.46 1078.15 1061.62 1087.49 1002.6 1087.49C943.44 1087.49 886.467 1078.11 833.093 1060.75L858.674 982.014ZM933.927 750.41C955.117 757.32 977.712 761.12 1001.17 761.268L1002.6 761.272C1026.43 761.272 1049.38 757.507 1070.88 750.54L1118.76 897.898C1082.18 909.76 1043.14 916.171 1002.6 916.171C961.921 916.171 922.746 909.714 886.048 897.768L933.927 750.41ZM979.77 609.32C986.954 611.683 994.629 612.963 1002.6 612.963C1010.43 612.963 1017.97 611.731 1025.04 609.451L1052.4 693.671C1036.72 698.749 1019.98 701.493 1002.6 701.493C985.079 701.493 968.206 698.701 952.405 693.541L979.77 609.32Z" fill="white" fill-opacity="0.1"/>
<path d="M1581 960.115C1493.16 1080.83 1368.46 1172.98 1223.43 1220.04L1187.18 1108.47C1308.42 1069.13 1412.68 992.09 1486.11 891.175L1581 960.115ZM1427.73 848.755C1363.16 937.491 1271.49 1005.23 1164.87 1039.82L1146.13 982.139C1240.45 951.547 1321.55 891.617 1378.67 813.114L1427.73 848.755ZM1307.04 761.07C1260.8 824.63 1195.13 873.151 1118.76 897.914L1108.64 866.758C1178.37 844.151 1238.32 799.85 1280.54 741.818L1307.04 761.07ZM1244.72 715.788C1207.93 766.346 1155.7 804.94 1094.95 824.631L1036.67 645.261C1059.19 637.983 1078.54 623.688 1092.17 604.953L1244.72 715.788Z" fill="white" fill-opacity="0.1"/>
<path d="M1722.33 539.944C1722.33 698.042 1671.36 844.233 1584.94 962.98L1504.02 904.185C1578.06 802.444 1621.88 677.304 1622.31 541.948L1622.31 539.944C1622.31 539.87 1622.31 539.796 1622.31 539.723H1722.33C1722.33 539.796 1722.33 539.87 1722.33 539.944ZM1490.84 539.944C1490.84 647.186 1456.26 746.352 1397.65 826.903L1378.67 813.115C1434.19 736.811 1467.06 642.96 1467.38 541.447L1467.38 539.944C1467.38 539.87 1467.38 539.796 1467.38 539.723H1490.84C1490.84 539.796 1490.84 539.87 1490.84 539.944ZM1412.48 539.944C1412.48 629.971 1383.45 713.217 1334.25 780.839L1253.33 722.044C1290.15 671.428 1312.02 609.232 1312.45 541.948L1312.46 539.944C1312.46 539.87 1312.46 539.796 1312.46 539.723H1412.48C1412.48 539.796 1412.48 539.87 1412.48 539.944ZM1257.55 539.944C1257.55 595.935 1239.5 647.71 1208.9 689.769L1092.16 604.954C1105.31 586.881 1113.11 564.678 1113.26 540.659L1113.26 539.944C1113.26 539.87 1113.26 539.796 1113.26 539.723H1257.55C1257.55 539.796 1257.55 539.87 1257.55 539.944Z" fill="white" fill-opacity="0.1"/>
<path d="M1039.26 512.928C1044.74 520.45 1047.97 529.71 1047.97 539.724H1024.51C1024.51 534.863 1022.94 530.369 1020.28 526.717L1039.26 512.928ZM1128.8 447.873C1147.57 473.653 1158.65 505.395 1158.66 539.724H1135.2C1135.2 510.548 1125.78 483.571 1109.83 461.661L1128.8 447.873ZM1236.25 369.809C1270.97 417.499 1291.47 476.219 1291.48 539.724H1268.02C1268.01 481.372 1249.18 427.417 1217.27 383.598L1236.25 369.809ZM1513.09 168.676C1588.91 272.818 1633.66 401.046 1633.68 539.724H1533.66C1533.64 423.019 1495.98 315.109 1432.16 227.47L1513.09 168.676Z" fill="white" fill-opacity="0.1"/>
<path d="M1671.41 53.6445C1720.48 123.743 1758.8 201.91 1784 285.759L1761.68 293.011C1737.25 211.529 1700.06 135.563 1652.43 67.435L1671.41 53.6445Z" fill="white" fill-opacity="0.1"/>
<path d="M1016.47 496.356C1025.71 499.357 1033.66 505.231 1039.26 512.925L1020.28 526.714C1017.56 522.98 1013.71 520.127 1009.22 518.67L1016.47 496.356ZM1043.83 412.144C1071.03 420.969 1094.41 438.248 1110.89 460.88L1091.92 474.668C1078.32 455.995 1059.02 441.739 1036.58 434.459L1043.83 412.144ZM1101.7 234.046C1166.86 255.192 1222.9 296.594 1262.38 350.821L1181.45 409.616C1154.26 372.27 1115.66 343.758 1070.78 329.197L1101.7 234.046ZM1112.23 201.62C1184.31 225.006 1246.3 270.797 1289.97 330.775L1270.99 344.562C1230.2 288.543 1172.31 245.778 1104.98 223.936L1112.23 201.62ZM1166.55 34.4686C1274.26 69.4184 1366.88 137.848 1432.14 227.479L1360.53 279.509C1306.14 204.817 1228.95 147.794 1139.19 118.672L1166.55 34.4686ZM1214.84 -114.166C1354.24 -68.9385 1474.12 19.6187 1558.58 135.616L1539.6 149.404C1458.02 37.3659 1342.23 -48.1685 1207.59 -91.8518L1214.84 -114.166Z" fill="white" fill-opacity="0.1"/>
<path d="M1002.38 494.136C1007.3 494.136 1012.03 494.914 1016.47 496.355L1009.22 518.669C1007.07 517.97 1004.77 517.592 1002.38 517.592C999.994 517.592 997.695 517.97 995.541 518.669L988.291 496.355C992.728 494.914 997.464 494.136 1002.38 494.136ZM1003.95 303.836C1028.84 303.994 1052.81 308.005 1075.3 315.302L1042.47 416.347C1029.86 412.258 1016.4 410.048 1002.42 410.048C988.421 410.048 974.937 412.267 962.303 416.372L929.471 315.327C952.444 307.864 976.963 303.832 1002.42 303.832L1003.95 303.836ZM1003.89 97.1544C1051.1 97.3038 1096.56 104.842 1139.19 118.672L1101.02 236.137C1069.98 226.069 1036.86 220.629 1002.46 220.629C968.013 220.629 934.838 226.086 903.756 236.184L865.589 118.719C908.691 104.719 954.693 97.1522 1002.46 97.1522L1003.89 97.1544ZM1002.5 -224.152C1084.87 -224.152 1164.18 -211.119 1238.51 -187.003L1207.59 -91.8525C1143.65 -112.598 1075.45 -123.904 1004.65 -124.128L1002.5 -124.132C930.849 -124.132 861.846 -112.782 797.194 -91.7808L766.277 -186.932C840.665 -211.094 920.059 -224.152 1002.5 -224.152Z" fill="white" fill-opacity="0.1"/>
<path d="M995.542 518.672C991.055 520.129 987.198 522.982 984.48 526.717L965.501 512.928C971.101 505.234 979.049 499.359 988.292 496.358L995.542 518.672ZM975.014 455.491C957.051 461.307 941.606 472.717 930.732 487.666L897.431 463.472C913.361 441.576 935.983 424.862 962.291 416.336L975.014 455.491ZM947.645 371.259C911.719 382.89 880.828 405.71 859.081 435.609L840.103 421.821C864.732 387.963 899.712 362.121 940.395 348.945L947.645 371.259ZM904.129 237.329C839.641 258.208 784.192 299.169 745.156 352.837L726.178 339.049C768.096 281.422 827.634 237.438 896.878 215.015L904.129 237.329ZM872.69 140.57C787.602 168.182 714.436 222.253 662.899 293.074L581.975 234.28C645.799 146.577 736.404 79.6173 841.773 45.4196L872.69 140.57ZM791.166 -110.334C652.605 -65.3451 533.458 22.7144 449.521 138.046L435.197 127.64C521.31 9.32004 643.544 -81.0205 785.694 -127.175L791.166 -110.334ZM739.986 -267.849C567.835 -211.985 419.804 -102.589 315.533 40.6983L234.609 -18.0963C351.167 -178.265 516.637 -300.55 709.07 -363L739.986 -267.849Z" fill="white" fill-opacity="0.1"/>
<path d="M239.83 -14.2997C126.586 141.192 59.758 332.655 59.7104 539.725H0.40625C0.453831 319.627 71.4832 116.117 191.849 -49.1602L239.83 -14.2997ZM452.882 140.491C371.26 252.534 323.086 390.505 323.038 539.725H200.89C200.937 363.67 257.764 200.887 354.055 68.6892L452.882 140.491ZM541.683 205.009C473.241 298.943 432.843 414.617 432.795 539.725H409.339C409.387 409.464 451.447 289.025 522.705 191.221L541.683 205.009ZM660.275 291.172C609.421 360.923 579.381 446.818 579.286 539.725H437.664C437.759 415.705 477.832 301.041 545.693 207.923L660.275 291.172ZM708.186 325.981C664.457 385.958 638.637 459.828 638.59 539.725H585.481C585.529 448.16 615.111 363.503 665.218 294.762L708.186 325.981ZM754.377 359.54C717.504 410.098 695.729 472.37 695.681 539.725H686.83C686.878 470.425 709.279 406.355 747.215 354.337L754.377 359.54ZM860.366 436.546C839.224 465.489 826.729 501.149 826.682 539.725H726.661C726.709 479.176 746.289 423.197 779.442 377.751L860.366 436.546ZM899.109 464.694C883.703 485.739 874.574 511.668 874.479 539.725H856.777C856.872 507.779 867.254 478.254 884.786 454.288L899.109 464.694ZM931.265 488.057C920.646 502.541 914.358 520.4 914.31 539.725H890.854C890.902 515.247 898.85 492.623 912.286 474.268L931.265 488.057ZM957.046 506.788C950.253 516.015 946.223 527.4 946.175 539.725H937.324C937.372 525.456 942.029 512.272 949.884 501.585L957.046 506.788ZM984.478 526.718C981.821 530.37 980.252 534.864 980.252 539.725H956.796C956.796 529.711 960.025 520.451 965.499 512.929L984.478 526.718Z" fill="white" fill-opacity="0.1"/>
</svg>
